<svg width="1600" height="1200" viewBox="0 0 1600 1200" fill="none" xmlns="http://www.w3.org/2000/svg">
  <defs>
    <linearGradient id="bg" x1="0" y1="0" x2="1" y2="1">
      <stop offset="0" stop-color="#0B1020"/>
      <stop offset="0.45" stop-color="#0B2A5A"/>
      <stop offset="1" stop-color="#1D4ED8"/>
    </linearGradient>
    <linearGradient id="ticket" x1="0" y1="0" x2="1" y2="0">
      <stop offset="0" stop-color="#FFFFFF" stop-opacity="0.95"/>
      <stop offset="1" stop-color="#E5E7EB" stop-opacity="0.95"/>
    </linearGradient>
    <filter id="shadow" x="-30%" y="-30%" width="160%" height="160%" color-interpolation-filters="sRGB">
      <feDropShadow dx="0" dy="18" stdDeviation="24" flood-color="#000000" flood-opacity="0.35"/>
    </filter>
  </defs>

  <rect width="1600" height="1200" fill="url(#bg)"/>

  <!-- soft blobs -->
  <circle cx="1250" cy="300" r="240" fill="#60A5FA" fill-opacity="0.18"/>
  <circle cx="1380" cy="760" r="320" fill="#93C5FD" fill-opacity="0.12"/>
  <circle cx="980" cy="980" r="260" fill="#A5B4FC" fill-opacity="0.12"/>

  <!-- ticket card -->
  <g filter="url(#shadow)">
    <path d="M390 350C390 319.072 415.072 294 446 294H1220C1250.93 294 1276 319.072 1276 350V452C1235.78 452 1203 484.784 1203 525C1203 565.216 1235.78 598 1276 598V850C1276 880.928 1250.93 906 1220 906H446C415.072 906 390 880.928 390 850V748C430.216 748 463 715.216 463 675C463 634.784 430.216 602 390 602V350Z" fill="url(#ticket)"/>

    <!-- perforation -->
    <line x1="790" y1="340" x2="790" y2="860" stroke="#111827" stroke-opacity="0.18" stroke-width="4" stroke-dasharray="10 14"/>

    <!-- left content -->
    <rect x="460" y="380" width="260" height="44" rx="12" fill="#1D4ED8" fill-opacity="0.14"/>
    <rect x="460" y="444" width="210" height="20" rx="10" fill="#111827" fill-opacity="0.16"/>
    <rect x="460" y="476" width="240" height="20" rx="10" fill="#111827" fill-opacity="0.12"/>

    <!-- calendar icon -->
    <g transform="translate(470 540)">
      <rect x="0" y="0" width="120" height="110" rx="20" fill="#0B1020" fill-opacity="0.9"/>
      <rect x="0" y="0" width="120" height="34" rx="20" fill="#1D4ED8"/>
      <rect x="18" y="50" width="24" height="18" rx="6" fill="#93C5FD"/>
      <rect x="52" y="50" width="24" height="18" rx="6" fill="#93C5FD"/>
      <rect x="86" y="50" width="16" height="18" rx="6" fill="#93C5FD" fill-opacity="0.75"/>
      <rect x="18" y="74" width="24" height="18" rx="6" fill="#93C5FD" fill-opacity="0.75"/>
      <rect x="52" y="74" width="24" height="18" rx="6" fill="#93C5FD" fill-opacity="0.75"/>
      <rect x="86" y="74" width="16" height="18" rx="6" fill="#93C5FD" fill-opacity="0.6"/>
      <rect x="26" y="10" width="10" height="18" rx="5" fill="#E5E7EB"/>
      <rect x="84" y="10" width="10" height="18" rx="5" fill="#E5E7EB"/>
    </g>

    <!-- right stub content -->
    <rect x="842" y="380" width="330" height="26" rx="13" fill="#111827" fill-opacity="0.16"/>
    <rect x="842" y="420" width="280" height="18" rx="9" fill="#111827" fill-opacity="0.12"/>

    <rect x="842" y="500" width="380" height="90" rx="18" fill="#1D4ED8" fill-opacity="0.12"/>
    <rect x="866" y="526" width="220" height="16" rx="8" fill="#111827" fill-opacity="0.16"/>
    <rect x="866" y="552" width="310" height="16" rx="8" fill="#111827" fill-opacity="0.12"/>

    <!-- barcode -->
    <g transform="translate(860 660)">
      <rect x="0" y="0" width="370" height="74" rx="16" fill="#0B1020" fill-opacity="0.92"/>
      <g transform="translate(22 16)" fill="#E5E7EB" fill-opacity="0.92">
        <rect x="0" y="0" width="6" height="42"/>
        <rect x="14" y="0" width="3" height="42"/>
        <rect x="24" y="0" width="10" height="42"/>
        <rect x="42" y="0" width="4" height="42"/>
        <rect x="54" y="0" width="8" height="42"/>
        <rect x="70" y="0" width="3" height="42"/>
        <rect x="80" y="0" width="12" height="42"/>
        <rect x="100" y="0" width="4" height="42"/>
        <rect x="112" y="0" width="8" height="42"/>
        <rect x="128" y="0" width="3" height="42"/>
        <rect x="138" y="0" width="10" height="42"/>
        <rect x="156" y="0" width="4" height="42"/>
        <rect x="168" y="0" width="14" height="42"/>
        <rect x="190" y="0" width="3" height="42"/>
        <rect x="200" y="0" width="10" height="42"/>
        <rect x="218" y="0" width="4" height="42"/>
        <rect x="230" y="0" width="8" height="42"/>
        <rect x="246" y="0" width="3" height="42"/>
        <rect x="256" y="0" width="12" height="42"/>
        <rect x="276" y="0" width="4" height="42"/>
        <rect x="288" y="0" width="18" height="42"/>
      </g>
    </g>
  </g>

  <!-- footer text hint -->
  <g transform="translate(110 920)">
    <rect x="0" y="0" width="560" height="190" rx="28" fill="#0B1020" fill-opacity="0.35"/>
    <text x="36" y="78" fill="#FFFFFF" font-family="ui-sans-serif, system-ui, -apple-system, Segoe UI, Roboto" font-size="44" font-weight="800">Book your next event</text>
    <text x="36" y="130" fill="#E5E7EB" font-family="ui-sans-serif, system-ui, -apple-system, Segoe UI, Roboto" font-size="22" opacity="0.92">Discover shows, conferences, and experiences in minutes.</text>
  </g>
</svg>
